<?xml version="1.0" encoding="UTF-8" standalone="no"?>
<svg
   xmlns:dc="http://purl.org/dc/elements/1.1/"
   xmlns:cc="http://creativecommons.org/ns#"
   xmlns:rdf="http://www.w3.org/1999/02/22-rdf-syntax-ns#"
   xmlns:svg="http://www.w3.org/2000/svg"
   xmlns="http://www.w3.org/2000/svg"
   xmlns:sodipodi="http://sodipodi.sourceforge.net/DTD/sodipodi-0.dtd"
   xmlns:inkscape="http://www.inkscape.org/namespaces/inkscape"
   width="512"
   height="512"
   viewBox="0 0 135.46666 135.46667"
   version="1.1"
   id="svg8"
   sodipodi:docname="logo.svg"
   inkscape:version="1.0.1 (3bc2e813f5, 2020-09-07)">
  <defs
     id="defs2" />
  <sodipodi:namedview
     id="base"
     pagecolor="#ffffff"
     bordercolor="#666666"
     borderopacity="1.0"
     inkscape:pageopacity="0.0"
     inkscape:pageshadow="2"
     inkscape:zoom="0.7"
     inkscape:cx="368.06644"
     inkscape:cy="71.787473"
     inkscape:document-units="px"
     inkscape:current-layer="layer1"
     inkscape:document-rotation="0"
     showgrid="false"
     showguides="false"
     units="px"
     inkscape:window-width="1267"
     inkscape:window-height="1000"
     inkscape:window-x="315"
     inkscape:window-y="1"
     inkscape:window-maximized="0" />
  <metadata
     id="metadata5">
    <rdf:RDF>
      <cc:Work
         rdf:about="">
        <dc:format>image/svg+xml</dc:format>
        <dc:type
           rdf:resource="http://purl.org/dc/dcmitype/StillImage" />
        <dc:title></dc:title>
      </cc:Work>
    </rdf:RDF>
  </metadata>
  <g
     inkscape:label="Layer 1"
     inkscape:groupmode="layer"
     id="layer1">
    <rect
       style="fill:#000000;fill-opacity:1;stroke-width:0.264583"
       id="rect858"
       width="0.26458332"
       height="135.46666"
       x="0"
       y="0.75595242" />
    <rect
       style="fill:#000000;fill-opacity:1;stroke-width:0.264583"
       id="rect862"
       width="0.26458332"
       height="135.46666"
       x="135.20207"
       y="0.75594759" />
    <path
       style="fill:none;stroke:#000000;stroke-width:0.264583px;stroke-linecap:butt;stroke-linejoin:miter;stroke-opacity:1"
       d="M 0,0.75594759 135.20207,136.22261 H 0 Z"
       id="path872" />
    <path
       style="fill:none;stroke:#000000;stroke-width:0.264583px;stroke-linecap:butt;stroke-linejoin:miter;stroke-opacity:1"
       d="M 135.20207,0.75594759 V 136.22261"
       id="path874" />
    <path
       style="fill:none;stroke:#000000;stroke-width:0.264583px;stroke-linecap:butt;stroke-linejoin:miter;stroke-opacity:1"
       d="m 68.41369,0 66.52381,69.925593 -0.37798,0.377979 v 0"
       id="path886" />
    <path
       style="fill:none;stroke:#000000;stroke-width:0.264583px;stroke-linecap:butt;stroke-linejoin:miter;stroke-opacity:1"
       d="M 0.26458332,136.22261 102.80952,35.52976 v 0"
       id="path888" />
    <path
       style="fill:none;stroke:#000000;stroke-width:0.264583px;stroke-linecap:butt;stroke-linejoin:miter;stroke-opacity:1"
       d="m 134.55952,70.303572 -32.12797,33.639878 h -0.37798"
       id="path890" />
    <path
       style="fill:none;stroke:#000000;stroke-width:0.264583px;stroke-linecap:butt;stroke-linejoin:miter;stroke-opacity:1"
       d="M 102.80952,35.52976 H 34.395833 v 0"
       id="path892" />
    <path
       style="fill:#ff0000;fill-opacity:1;stroke-width:1.42857"
       d="m 5.4770541,513.10022 c 0,-0.33683 57.0340539,-56.62291 126.7423459,-125.0802 l 126.74234,-124.46779 20.70621,21.15163 c 11.38842,11.6334 67.33372,67.91949 124.32289,125.08021 L 507.60751,513.71264 H 256.54228 c -138.08587,0 -251.0652259,-0.27559 -251.0652259,-0.61242 z"
       id="path894"
       transform="scale(0.26458333)" />
    <path
       style="fill:#ffff00;fill-opacity:1;stroke-width:1.42857"
       d="M 1.1913398,259.41544 V 5.8614798 L 129.04673,133.71089 256.90213,261.56029 237.9753,280.28397 C 227.56555,290.58198 181.76277,335.53201 136.19134,380.17292 90.619911,424.81384 41.602054,472.95524 27.262768,487.15381 L 1.1913398,512.96939 Z"
       id="path896"
       transform="scale(0.26458333)" />
    <path
       style="fill:#0000ff;fill-opacity:1;stroke-width:1.42857"
       d="m 449.52713,451.21264 -59.50861,-59.64286 59.87213,-62.46699 59.87212,-62.467 v 122.10985 c 0,67.16043 -0.16359,122.10985 -0.36352,122.10985 -0.19994,0 -27.14239,-26.83928 -59.87212,-59.64285 z"
       id="path898"
       transform="scale(0.26458333)" />
    <path
       style="fill:#00ff00;fill-opacity:1;stroke-width:1.42857"
       d="M 324.04397,325.80622 260.47705,262.18251 323.3342,200.1633 c 34.57143,-34.11056 63.26517,-62.052 63.76387,-62.09208 1.48981,-0.11973 119.72791,124.80468 119.59278,126.3557 -0.11257,1.29243 -116.3506,123.79713 -118.26821,124.64436 -0.44647,0.19726 -29.41687,-28.27201 -64.37867,-63.26506 z"
       id="path900"
       transform="scale(0.26458333)" />
    <path
       style="fill:none;stroke:#000000;stroke-width:0.339893px;stroke-linecap:butt;stroke-linejoin:miter;stroke-opacity:1"
       d="M 135.46666,0.75594759 1.6468878,0.20519824 0.36262955,0.02161358"
       id="path902" />
    <path
       style="fill:#ff6600;fill-opacity:1;stroke-width:0.714286"
       d="m 449.49501,199.30222 c -33,-34.6902 -60.10012,-63.73127 -60.22249,-64.53571 -0.12237,-0.80444 -0.85049,-1.56274 -1.61805,-1.68512 C 386.52756,132.90173 262.31085,3.2344659 262.89637,2.8489838 c 0.37105,-0.244286 246.44703,1.0487787 246.69456,1.2963152 0.14581,0.145807 0.18388,58.307209 0.0846,129.247561 l -0.18052,128.98246 z"
       id="path904"
       transform="scale(0.26458333)" />
    <path
       style="fill:#ff00ff;fill-opacity:1;stroke-width:1.42857"
       d="M 66.632047,67.341066 0.92358439,1.4660887 80.801647,2.3410668 c 43.932933,0.4812379 102.171813,0.874978 129.419723,0.874978 h 49.54166 l 49.866,52.4904182 c 27.42628,28.869732 55.26121,58.119727 61.85537,64.999997 l 11.98938,12.50958 H 257.90714 132.34051 Z"
       id="path906"
       transform="scale(0.26458333)" />
    <path
       style="fill:#00ffff;fill-opacity:1;stroke-width:1.42857"
       d="M 196.63787,197.50176 135.22176,136.07319 H 259.92702 384.6323 l -46.15757,45.35714 c -64.42791,63.31067 -79.03386,77.5 -79.77549,77.5 -0.35489,0 -28.28251,-27.64286 -62.06137,-61.42857 z"
       id="path908"
       transform="scale(0.26458333)" />
  </g>
</svg>
